# xmcd CD database file
#
# Track frame offsets:
#	150
#	17933
#	39998
#	59902
#	80340
#	105113
#	131097
#	152841
#	169795
#	188476
#	202314
#	222141
#	239160
#	259548
#	282416
#	302530
#
# Disc length: 4300 seconds
#
# Revision: 0
# Processed by: cddbd v1.5.2PL0 Copyright (c) Steve Scherf et al.
# Submitted via: CDex 1.70beta2
#
DISCID=e310ca10
DTITLE=Various Artist - Merengue Mayhem
DYEAR=2006
DGENRE=Merengue
TTITLE0=Caramelo
TTITLE1=El Mujeron
TTITLE2=La Negra Carmen
TTITLE3=Merengue Aumentativo
TTITLE4=No Podras
TTITLE5=Dejenme Llorar
TTITLE6=Salado Y Dulce
TTITLE7=Juanita Morey
TTITLE8=Vide Clip
TTITLE9=Alma Negra
TTITLE10=La Duena Del Swing
TTITLE11=En Tu Pelo
TTITLE12=Solo Tu
TTITLE13=Nuestro Cancion
TTITLE14=Tanto Problema
TTITLE15=Amor Prohibido
EXTD=YEAR: 2006
EXTT0=
EXTT1=
EXTT2=
EXTT3=
EXTT4=
EXTT5=
EXTT6=
EXTT7=
EXTT8=
EXTT9=
EXTT10=
EXTT11=
EXTT12=
EXTT13=
EXTT14=
EXTT15=
PLAYORDER=
